<svg width="161" height="72" viewBox="0 0 161 72" fill="none" xmlns="http://www.w3.org/2000/svg">
<path d="M14.625 38.9219C14.3438 39.0781 14.0938 39.2344 13.875 39.3906C13.6875 39.5156 13.4219 39.5938 13.0781 39.625L12.9375 39.1094L10.6406 39.3906C10.6406 39.1094 10.4688 38.875 10.125 38.6875C9.8125 38.5 9.42188 38.3438 8.95312 38.2188C8.48438 38.0938 8 37.9844 7.5 37.8906C7.03125 37.7656 6.67188 37.625 6.42188 37.4688C6.20312 37.5938 5.96875 37.6094 5.71875 37.5156C5.5 37.3906 5.3125 37.2656 5.15625 37.1406C4.78125 36.8594 4.42188 36.6562 4.07812 36.5312C3.76562 36.4062 3.45312 36.3125 3.14062 36.25C2.82812 36.1562 2.5 36.0781 2.15625 36.0156C1.84375 35.9219 1.48438 35.7969 1.07812 35.6406C0.953125 35.4844 0.90625 35.3125 0.9375 35.125C1 34.9375 1.09375 34.7344 1.21875 34.5156C1.09375 34.1719 1.07812 33.8594 1.17188 33.5781C1.26562 33.2969 1.51562 33.0625 1.92188 32.875C2.23438 32.75 2.53125 32.625 2.8125 32.5C3.125 32.375 3.4375 32.2344 3.75 32.0781C4.65625 31.6406 5.60938 31.1562 6.60938 30.625C7.64062 30.0938 8.70312 29.75 9.79688 29.5938C10.2344 29.2188 10.7656 28.9062 11.3906 28.6562C12.0156 28.4062 12.6719 28.2188 13.3594 28.0938C14.0469 27.9375 14.7344 27.8594 15.4219 27.8594C16.1406 27.8281 16.8125 27.8906 17.4375 28.0469C17.4062 28.3281 17.3906 28.5781 17.3906 28.7969C17.4219 29.0156 17.3281 29.25 17.1094 29.5L16.5938 29.2656L15.4219 30.8594C15.1719 30.6406 14.8594 30.5781 14.4844 30.6719C14.1406 30.7656 13.7656 30.9062 13.3594 31.0938C12.9531 31.2812 12.5469 31.4844 12.1406 31.7031C11.7656 31.9219 11.4375 32.0469 11.1562 32.0781C11.125 32.2969 10.9844 32.4531 10.7344 32.5469C10.5156 32.6094 10.2969 32.6406 10.0781 32.6406C9.60938 32.7031 9.21875 32.7812 8.90625 32.875C8.59375 32.9688 8.29688 33.0938 8.01562 33.25C7.76562 33.375 7.5 33.5156 7.21875 33.6719C6.96875 33.8281 6.65625 33.9688 6.28125 34.0938C6.125 34.0625 5.89062 34.0781 5.57812 34.1406C5.92188 34.2344 6.26562 34.3594 6.60938 34.5156C6.95312 34.6719 7.29688 34.8594 7.64062 35.0781C8.26562 35.1406 8.92188 35.2812 9.60938 35.5C10.2969 35.7188 10.9531 36 11.5781 36.3438C12.2344 36.6875 12.8281 37.0938 13.3594 37.5625C13.8906 38 14.3125 38.4531 14.625 38.9219ZM59.9531 38.9688C59.6406 39.7188 59.25 40.1875 58.7812 40.375C58.3125 40.5312 57.8281 40.6094 57.3281 40.6094C56.8906 40.5781 56.4219 40.5312 55.9219 40.4688C55.4531 40.375 55 40.3594 54.5625 40.4219C53.6562 41.0469 52.9844 41.8125 52.5469 42.7188C52.1094 43.5938 51.75 44.5469 51.4688 45.5781C51.1875 46.5781 50.9219 47.5938 50.6719 48.625C50.4531 49.625 50.0938 50.5625 49.5938 51.4375C49.25 52.0625 48.9688 52.7188 48.75 53.4062C48.5312 54.125 48.2969 54.8281 48.0469 55.5156C47.8281 56.2344 47.5469 56.9062 47.2031 57.5312C46.8906 58.1875 46.4375 58.75 45.8438 59.2188C46 59.4688 46.0312 59.7031 45.9375 59.9219C45.8438 60.1406 45.7188 60.3281 45.5625 60.4844L45.375 60.7188L45.0938 61C45.1875 61.6875 45.0312 62.3125 44.625 62.875C44.25 63.4688 43.875 64.0312 43.5 64.5625C43.3438 64.7188 43.2031 64.8906 43.0781 65.0781C42.9844 65.2656 42.875 65.4844 42.75 65.7344C42.0625 65.5156 41.5625 65.5625 41.25 65.875L40.9219 67.375L40.5938 66.8594C40.3438 67.4531 40 67.9062 39.5625 68.2188C39.1562 68.5312 38.7031 68.7656 38.2031 68.9219C37.7344 69.0781 37.2188 69.2031 36.6562 69.2969C36.125 69.4219 35.6094 69.5781 35.1094 69.7656C34.7969 69.9219 34.5312 70.0938 34.3125 70.2812C34.0625 70.5 33.8125 70.7812 33.5625 71.125C32.5 71.1562 31.6562 70.875 31.0312 70.2812C30.4062 69.6875 29.875 69 29.4375 68.2188C29.6562 67.4375 29.8281 66.6406 29.9531 65.8281C30.0469 65.0156 30.1719 64.2031 30.3281 63.3906C30.4531 62.6094 30.6406 61.8281 30.8906 61.0469C31.1094 60.2969 31.4375 59.5625 31.875 58.8438C31.7812 58.5312 31.7656 58.2344 31.8281 57.9531C31.8594 57.6719 31.9375 57.4062 32.0625 57.1562C32.1875 56.9062 32.3438 56.6562 32.5312 56.4062C32.6875 56.1875 32.8125 55.9531 32.9062 55.7031C33.0625 55.4219 33.0938 55.1094 33 54.7656C33.5 54.0156 33.9688 53.2812 34.4062 52.5625C34.8438 51.875 35.2969 51.1875 35.7656 50.5C36.2344 49.8125 36.7344 49.1562 37.2656 48.5312C37.8281 47.875 38.4688 47.2656 39.1875 46.7031L39.3281 45.9531C40.0156 45.5156 40.625 45 41.1562 44.4062C41.7188 43.8125 42.3125 43.25 42.9375 42.7188C44.0938 41.75 45.2344 40.9375 46.3594 40.2812C47.4844 39.5938 48.7969 39.125 50.2969 38.875C50.5781 38.7188 50.7031 38.5156 50.6719 38.2656C50.6719 37.9844 50.6562 37.7031 50.625 37.4219C50.5938 37.1094 50.6094 36.8125 50.6719 36.5312C50.7344 36.25 50.9844 36.0312 51.4219 35.875C51.4531 35.6875 51.5156 35.4375 51.6094 35.125C51.7031 34.8125 51.7656 34.5 51.7969 34.1875C51.8594 33.875 51.8594 33.5938 51.7969 33.3438C51.7656 33.0938 51.6094 32.9531 51.3281 32.9219C51.0781 32.8906 50.8594 32.8594 50.6719 32.8281C50.4844 32.7969 50.3438 32.6562 50.25 32.4062C49.3438 32.2812 48.4219 32.0938 47.4844 31.8438C46.5469 31.5625 45.5781 31.375 44.5781 31.2812C44.4531 30.875 44.2188 30.5625 43.875 30.3438C43.5625 30.0938 43.2031 29.8906 42.7969 29.7344C42.3906 29.5469 41.9844 29.375 41.5781 29.2188C41.1719 29.0625 40.8281 28.8438 40.5469 28.5625C40.0781 28.125 39.6094 27.6562 39.1406 27.1562C38.6719 26.6562 38.25 26.125 37.875 25.5625C37.5 25 37.1875 24.4062 36.9375 23.7812C36.6875 23.125 36.5469 22.4375 36.5156 21.7188L35.6719 20.4531L36 20.2656C35.8438 20.0469 35.7344 19.8594 35.6719 19.7031C35.6094 19.5156 35.625 19.2969 35.7188 19.0469L36 18.9062C35.9062 18.5938 35.9062 18.3125 36 18.0625C36.0625 17.8125 36.1406 17.5625 36.2344 17.3125C36.3594 17.0625 36.4375 16.8281 36.4688 16.6094C36.5312 16.3594 36.4844 16.0938 36.3281 15.8125C36.3906 15.2812 36.5469 14.8125 36.7969 14.4062C37.0469 13.9687 37.3125 13.5 37.5938 13C37.8438 12.5938 38.0469 12.2031 38.2031 11.8281C38.3594 11.4219 38.4062 10.9844 38.3438 10.5156C39.125 9.73438 39.9688 8.8125 40.875 7.75C41.8125 6.65625 42.7969 5.71875 43.8281 4.9375C44.8594 4.125 45.9531 3.59375 47.1094 3.34375C48.2969 3.0625 49.5625 3.32812 50.9062 4.14062C51.3125 3.82813 51.5781 3.78125 51.7031 4C51.8594 4.21875 51.9688 4.46875 52.0312 4.75C52.0625 4.875 52.0938 4.96875 52.125 5.03125C52.1875 5.09375 52.2969 5.10937 52.4531 5.07812C53.1719 5.54688 53.6719 6.07813 53.9531 6.67188C54.2656 7.23438 54.5 7.82812 54.6562 8.45312C54.8438 9.04687 55.0312 9.64063 55.2188 10.2344C55.4062 10.8281 55.75 11.3594 56.25 11.8281C56.3125 13.3281 56.3594 14.7969 56.3906 16.2344C56.4219 17.6719 56.5781 19.125 56.8594 20.5938C56.5781 22.375 56.3125 24.125 56.0625 25.8438C55.8125 27.5625 55.625 29.3125 55.5 31.0938C55.8125 31.4688 56.0625 31.9375 56.25 32.5C56.4375 33.0625 56.5312 33.6094 56.5312 34.1406L56.1094 34.8906C56.1719 35.1094 56.0938 35.25 55.875 35.3125C55.6875 35.375 55.5781 35.2656 55.5469 34.9844L55.5 34.8906C55.5 34.7656 55.4219 34.7031 55.2656 34.7031C55.0156 34.7344 54.8281 34.8281 54.7031 34.9844C54.5781 35.1406 54.4844 35.3438 54.4219 35.5938C54.3594 35.8125 54.2969 36.0469 54.2344 36.2969C54.2031 36.5156 54.1562 36.7031 54.0938 36.8594C53.9375 37.2031 53.9062 37.4844 54 37.7031C54.0938 37.9219 54.1875 38.2031 54.2812 38.5469C54.9062 38.4844 55.5625 38.5156 56.25 38.6406C56.9688 38.7656 57.5938 38.9844 58.125 39.2969L59.0625 38.4062C59.0938 38.4688 59.1406 38.5625 59.2031 38.6875C59.2969 38.7812 59.375 38.8594 59.4375 38.9219C59.4688 38.9844 59.5 39.0156 59.5312 39.0156C59.5938 39.0156 59.7344 39 59.9531 38.9688ZM53.5312 17.0312C53.375 16.1875 53.1875 15.3438 52.9688 14.5C52.75 13.625 52.6094 12.7031 52.5469 11.7344L50.0625 6.85938C49.5312 7.01563 48.9844 7.0625 48.4219 7C47.8906 6.90625 47.4062 6.9375 46.9688 7.09375C46.7812 7.28125 46.5938 7.375 46.4062 7.375C46.2188 7.34375 46.0156 7.32812 45.7969 7.32812C45.6094 7.29688 45.4062 7.32812 45.1875 7.42188C45 7.51562 44.8125 7.78125 44.625 8.21875C44.4688 8.53125 44.3438 8.85937 44.25 9.20312C44.1875 9.51562 44.0469 9.82813 43.8281 10.1406C43.3906 10.3594 43.0469 10.6094 42.7969 10.8906C42.5469 11.1719 42.3594 11.4844 42.2344 11.8281C42.1406 12.1719 42.0781 12.5625 42.0469 13C42.0469 13.4375 42.0469 13.9219 42.0469 14.4531C41.6719 14.3594 41.4219 14.3437 41.2969 14.4062C41.2031 14.4688 41.0781 14.6563 40.9219 14.9688C40.8281 15.1875 40.6875 15.3906 40.5 15.5781C40.3438 15.7656 40.0938 15.7969 39.75 15.6719C39.5938 16.0156 39.4375 16.375 39.2812 16.75C39.125 17.0938 39.0156 17.4375 38.9531 17.7812C38.8906 18.1875 38.9219 18.5625 39.0469 18.9062C39.1719 19.2188 39.5 19.5312 40.0312 19.8438C39.8125 20.1875 39.7031 20.4531 39.7031 20.6406C39.7344 20.8281 39.7812 21.0938 39.8438 21.4375C39.875 21.6562 39.875 21.8906 39.8438 22.1406C39.8438 22.3906 39.7188 22.625 39.4688 22.8438C39.5938 22.9688 39.8438 23.0469 40.2188 23.0781C40.6875 24.2969 41.3594 25.25 42.2344 25.9375C43.1406 26.5938 44.125 27.1562 45.1875 27.625C46.25 28.0625 47.3438 28.4688 48.4688 28.8438C49.625 29.1875 50.6875 29.6406 51.6562 30.2031C51.7812 29.9531 51.9062 29.7188 52.0312 29.5C52.1875 29.2812 52.3125 29.0625 52.4062 28.8438C52.5312 28.625 52.5938 28.3906 52.5938 28.1406C52.5938 27.8906 52.5156 27.6094 52.3594 27.2969C52.7344 27.0469 52.9844 26.7969 53.1094 26.5469C53.2656 26.2656 53.3438 25.9688 53.3438 25.6562C53.3438 25.3438 53.2969 25.0312 53.2031 24.7188C53.1094 24.375 53.0469 24.0312 53.0156 23.6875C52.9219 23.25 52.9531 22.7656 53.1094 22.2344C53.5156 21.2656 53.7188 20.3594 53.7188 19.5156C53.75 18.6719 53.6875 17.8438 53.5312 17.0312ZM48.8906 42.3438C48.4844 42.25 48.0781 42.2812 47.6719 42.4375C47.2969 42.5625 46.9688 42.7812 46.6875 43.0938C46.75 43.1562 46.8281 43.2344 46.9219 43.3281C47.0156 43.4219 47.1406 43.5938 47.2969 43.8438C46.9844 43.875 46.6562 43.9062 46.3125 43.9375C45.9688 43.9375 45.6562 44 45.375 44.125C45.125 44.2188 44.9219 44.3438 44.7656 44.5C44.6406 44.6562 44.5469 44.9375 44.4844 45.3438C43.8906 45.375 43.4375 45.5469 43.125 45.8594C42.8125 46.1719 42.5469 46.5156 42.3281 46.8906C42.1094 47.2656 41.875 47.625 41.625 47.9688C41.4062 48.2812 41.0625 48.4688 40.5938 48.5312C40.4062 49.1562 40.125 49.7031 39.75 50.1719C39.375 50.6719 38.9844 51.1406 38.5781 51.5781C38.1719 52.0469 37.8125 52.5312 37.5 53.0312C37.2188 53.5625 37.0781 54.1875 37.0781 54.9062C37.0156 54.9688 37.0625 55.0156 37.2188 55.0469C37.5 55.1719 37.6406 55.3906 37.6406 55.7031C37.2969 55.9219 37 56.1094 36.75 56.2656C36.5 56.4531 36.25 56.625 36 56.7812C35.8125 56.9062 35.7188 57 35.7188 57.0625C35.7188 57.1562 35.7656 57.2812 35.8594 57.4375C35.9219 57.5 36.0625 57.7031 36.2812 58.0469L35.1094 58.7969L36.0469 60.6719C35.9219 60.7344 35.8125 60.7969 35.7188 60.8594C35.625 60.9531 35.5156 61.0312 35.3906 61.0938C35.3281 61.1562 35.1875 61.2188 34.9688 61.2812C35.0312 62.125 34.9531 62.9531 34.7344 63.7656C34.4844 64.5781 34.4062 65.4062 34.5 66.25C35.6875 66.1875 36.75 65.7969 37.6875 65.0781C38.6562 64.3594 39.5469 63.5625 40.3594 62.6875C40.3906 62.3438 40.4688 62.0312 40.5938 61.75C40.75 61.5 41 61.2969 41.3438 61.1406C41.5312 60.2969 41.8594 59.4688 42.3281 58.6562C42.7969 57.875 43.4531 57.2812 44.2969 56.875C44.2031 56.6875 44.1875 56.5 44.25 56.3125C44.3125 56.125 44.4062 55.9375 44.5312 55.75C44.625 55.5625 44.6719 55.4062 44.6719 55.2812C44.7031 55.1562 44.625 54.9844 44.4375 54.7656C44.5625 54.5156 44.6875 54.3281 44.8125 54.2031C44.9375 54.1094 45.0938 53.9375 45.2812 53.6875C45.375 53.5625 45.4219 53.4375 45.4219 53.3125C45.4219 53.2188 45.2969 53.0625 45.0469 52.8438C45.3906 52.625 45.5781 52.4219 45.6094 52.2344C45.6719 52.0469 45.7344 51.7656 45.7969 51.3906C45.8594 51.1406 45.9375 50.875 46.0312 50.5938C46.1562 50.3438 46.3906 50.1719 46.7344 50.0781C46.7969 49.7656 46.8438 49.4219 46.875 49.0469C46.9062 48.7031 46.9531 48.375 47.0156 48.0625C47.1094 47.7188 47.2344 47.4062 47.3906 47.125C47.5469 46.8438 47.7812 46.6094 48.0938 46.4219C48.125 46.2344 48.1562 46.0938 48.1875 46C48.2188 45.9062 48.2344 45.8281 48.2344 45.7656C48.2344 45.6719 48.1875 45.5938 48.0938 45.5312C48.0312 45.4375 47.8906 45.3281 47.6719 45.2031C48.3594 44.9531 48.7344 44.6875 48.7969 44.4062C48.8594 44.0938 48.875 43.625 48.8438 43C48.8438 42.9062 48.8438 42.8125 48.8438 42.7188C48.8438 42.5938 48.8594 42.4688 48.8906 42.3438ZM94.7344 15.1094C94.2969 15.5781 93.8125 15.8281 93.2812 15.8594C92.75 15.8594 92.2188 15.8125 91.6875 15.7188C91.1875 15.625 90.6875 15.5938 90.1875 15.625C89.7188 15.625 89.3125 15.875 88.9688 16.375C88.4688 16.25 87.9531 16.2344 87.4219 16.3281C86.8906 16.3906 86.3438 16.5 85.7812 16.6562C85.2188 16.7812 84.6562 16.9062 84.0938 17.0312C83.5312 17.1562 82.9688 17.2031 82.4062 17.1719L81.6094 16.375C81.3906 16.7188 81.0781 16.9375 80.6719 17.0312C80.2969 17.0938 79.9219 17 79.5469 16.75C78.8906 17.1875 78.2344 17.3906 77.5781 17.3594C76.9219 17.3281 76.2812 17.3125 75.6562 17.3125C75.0312 17.2812 74.4375 17.4062 73.875 17.6875C73.3438 17.9375 72.8906 18.5781 72.5156 19.6094C72.2344 20.3281 71.9688 21.0625 71.7188 21.8125C71.4688 22.5312 71.2188 23.25 70.9688 23.9688C70.2812 25.8438 69.5781 27.7031 68.8594 29.5469C68.1719 31.3594 67.3906 33.1562 66.5156 34.9375C66.4531 36.3438 66.4844 37.7656 66.6094 39.2031C66.7344 40.6406 66.875 42.0625 67.0312 43.4688C66.9062 43.8438 66.8594 44.2344 66.8906 44.6406C66.9531 45.0469 67.0625 45.4531 67.2188 45.8594C67.375 46.2656 67.5625 46.6562 67.7812 47.0312C68 47.375 68.2344 47.6875 68.4844 47.9688L69.3281 47.1719L70.5 48.8125C70.8125 48.4062 71.1719 47.9844 71.5781 47.5469C72.0156 47.0781 72.4688 46.6562 72.9375 46.2812C73.4062 45.875 73.8906 45.5469 74.3906 45.2969C74.9219 45.0156 75.4531 44.8281 75.9844 44.7344C76.2031 44.5156 76.4062 44.2812 76.5938 44.0312C76.7812 43.7812 76.9844 43.5781 77.2031 43.4219C77.4219 43.2344 77.6562 43.1094 77.9062 43.0469C78.1875 42.9531 78.5156 42.9688 78.8906 43.0938C79.8906 42.5312 80.7812 41.8281 81.5625 40.9844C82.3438 40.1094 83.125 39.25 83.9062 38.4062C84.6875 37.5312 85.5 36.7344 86.3438 36.0156C87.2188 35.2969 88.2344 34.7969 89.3906 34.5156C88.6406 36.3281 87.6875 38.0938 86.5312 39.8125C85.375 41.5 84.0781 43.0156 82.6406 44.3594C82.2656 44.7969 81.7969 45.1875 81.2344 45.5312C80.9844 45.6875 80.7188 45.8594 80.4375 46.0469C80.1562 46.2031 79.8906 46.3594 79.6406 46.5156C78.7969 47.0781 77.9844 47.6875 77.2031 48.3438C76.4219 48.9688 75.6719 49.6719 74.9531 50.4531C74.8594 50.2656 74.7344 50.1406 74.5781 50.0781C74.4219 50.0156 74.2344 49.9844 74.0156 49.9844C73.8281 49.9844 73.625 50 73.4062 50.0312C73.2188 50.0625 73.0469 50.0625 72.8906 50.0312C72.2969 50.4688 71.5156 50.8125 70.5469 51.0625C69.6094 51.3438 68.7656 51.4062 68.0156 51.25C67.7969 51.1875 67.5 51.0625 67.125 50.875C66.75 50.7188 66.4688 50.5781 66.2812 50.4531C65.0625 49.6406 64.1406 48.6406 63.5156 47.4531C62.9219 46.2344 62.5938 44.9062 62.5312 43.4688L62.1562 43.0938C62.5625 42.7188 62.8125 42.3438 62.9062 41.9688C63.0312 41.5938 63.0625 41.2188 63 40.8438C62.9688 40.4375 62.8906 40.0312 62.7656 39.625C62.6719 39.1875 62.6094 38.75 62.5781 38.3125C62.5469 38.0312 62.5469 37.7969 62.5781 37.6094C62.6406 37.4219 62.7031 37.2031 62.7656 36.9531C63.0156 35.9531 63.25 34.9844 63.4688 34.0469C63.6875 33.0781 63.9219 32.1094 64.1719 31.1406C64.7969 28.7656 65.5156 26.4219 66.3281 24.1094C67.1719 21.7656 68.0469 19.4531 68.9531 17.1719C68.4531 16.9844 67.9531 16.875 67.4531 16.8438C66.9531 16.7812 66.4375 16.75 65.9062 16.75C65.4062 16.75 64.8906 16.7344 64.3594 16.7031C63.8594 16.6719 63.3594 16.5625 62.8594 16.375C62.6406 16.2812 62.5312 16.2344 62.5312 16.2344C62.5312 16.2031 62.4062 16.1875 62.1562 16.1875C62 16.1875 61.7812 16.2188 61.5 16.2812C61.2188 16.3125 60.9375 16.3281 60.6562 16.3281C60.375 16.3281 60.125 16.2969 59.9062 16.2344C59.6562 16.1719 59.5156 16.0312 59.4844 15.8125V15.3438C59.5156 14.8438 59.625 14.5156 59.8125 14.3594C60 14.1719 60.2344 14.0625 60.5156 14.0312C60.7969 13.9687 61.1094 13.9375 61.4531 13.9375C61.7969 13.9063 62.125 13.7969 62.4375 13.6094C63.3125 13.7969 64.1406 13.9375 64.9219 14.0312C65.7031 14.0938 66.4531 14.0781 67.1719 13.9844C67.9219 13.8906 68.6406 13.6875 69.3281 13.375C70.0469 13.0625 70.75 12.5938 71.4375 11.9688C71.9375 11 72.3125 9.96875 72.5625 8.875C72.8125 7.75 73.0938 6.65625 73.4062 5.59375C73.75 4.5 74.1875 3.5 74.7188 2.59375C75.25 1.65625 76.0625 0.875 77.1562 0.25C77.6562 0.1875 78.0938 0.25 78.4688 0.4375C78.8438 0.625 79.2188 0.828125 79.5938 1.04688C79.4375 1.48438 79.3125 1.9375 79.2188 2.40625C79.125 2.875 79.0156 3.34375 78.8906 3.8125C78.7969 4.28125 78.6719 4.73437 78.5156 5.17188C78.3594 5.60938 78.125 6.01562 77.8125 6.39062C78.2188 6.54688 78.4531 6.73438 78.5156 6.95312C78.5781 7.17187 78.5469 7.40625 78.4219 7.65625C78.2969 7.90625 78.1406 8.17188 77.9531 8.45312C77.7656 8.73438 77.6562 8.98438 77.625 9.20312C77.2812 9.23437 76.9844 9.45313 76.7344 9.85938C76.5156 10.2656 76.2812 10.5781 76.0312 10.7969C75.7812 11.3281 75.8281 11.7812 76.1719 12.1562C76.5156 12.5312 76.8281 12.8906 77.1094 13.2344C77.3906 13.3281 77.6719 13.3438 77.9531 13.2812C78.2344 13.1875 78.4844 13.0938 78.7031 13C78.9531 12.9062 79.1875 12.8594 79.4062 12.8594C79.625 12.8594 79.8281 12.9844 80.0156 13.2344C80.3281 12.8906 80.6406 12.75 80.9531 12.8125C81.2656 12.8437 81.5781 12.9219 81.8906 13.0469C82.2031 13.1406 82.5156 13.1875 82.8281 13.1875C83.1406 13.1563 83.4375 12.9062 83.7188 12.4375C84.0938 12.25 84.4375 12.2031 84.75 12.2969C85.0938 12.3906 85.4062 12.5156 85.6875 12.6719C85.9688 12.7969 86.2344 12.9062 86.4844 13C86.7656 13.0625 87.0469 13 87.3281 12.8125C87.7969 12.875 88.3125 12.8906 88.875 12.8594C89.4688 12.8281 90.0469 12.7656 90.6094 12.6719C91.2031 12.5781 91.7812 12.4687 92.3438 12.3438C92.9375 12.1875 93.4688 12.0625 93.9375 11.9688C94.4062 12.25 94.6875 12.5 94.7812 12.7188C94.875 12.9375 94.8906 13.1563 94.8281 13.375C94.7969 13.5937 94.7344 13.8438 94.6406 14.125C94.5781 14.375 94.6094 14.7031 94.7344 15.1094ZM115.359 34.2812C115.484 34.75 115.438 35.1562 115.219 35.5C115 35.8125 114.703 36.0938 114.328 36.3438C113.984 36.5938 113.594 36.8281 113.156 37.0469C112.75 37.2344 112.406 37.4531 112.125 37.7031C110.719 38.0156 109.438 38.25 108.281 38.4062C107.156 38.5312 105.906 38.7031 104.531 38.9219C104.125 38.9844 103.734 38.9844 103.359 38.9219C103.016 38.8281 102.656 38.7969 102.281 38.8281C102.062 38.8281 101.859 38.8281 101.672 38.8281C101.484 38.7969 101.297 38.7969 101.109 38.8281C100.391 38.8906 99.9219 39.1406 99.7031 39.5781C99.4844 39.9844 99.2969 40.4688 99.1406 41.0312C99.0156 41.5625 98.8438 42.0781 98.625 42.5781C98.4375 43.0469 98.0156 43.375 97.3594 43.5625C97.2969 43.7188 97.3125 43.8594 97.4062 43.9844C97.5312 44.1094 97.625 44.2188 97.6875 44.3125C97.1562 44.4688 96.7969 44.75 96.6094 45.1562C96.4531 45.5625 96.3125 45.9688 96.1875 46.375C96.0625 46.7812 95.875 47.125 95.625 47.4062C95.4062 47.6875 94.9688 47.7812 94.3125 47.6875C93.3438 48.7188 92.2031 49.5469 90.8906 50.1719C89.5781 50.8281 88.2188 51.25 86.8125 51.4375C86.5625 51.3125 86.3125 51.1562 86.0625 50.9688C85.8438 50.7812 85.6094 50.6094 85.3594 50.4531C85.1406 50.2969 84.8906 50.1719 84.6094 50.0781C84.3594 50.0156 84.0625 50.0156 83.7188 50.0781C83.6875 49.4219 83.5625 48.8125 83.3438 48.25C83.0938 47.6875 82.7812 47.1562 82.4062 46.6562C82.3438 46.0938 82.4219 45.5781 82.6406 45.1094C82.8281 44.6094 83.0312 44.125 83.25 43.6562C83.4688 43.1875 83.6562 42.7188 83.8125 42.25C83.9375 41.75 83.9062 41.1875 83.7188 40.5625C84.0312 40.375 84.2344 40.1562 84.3281 39.9062C84.4531 39.6562 84.5312 39.4062 84.5625 39.1562C84.625 38.875 84.7031 38.625 84.7969 38.4062C84.8906 38.1562 85.1094 37.9531 85.4531 37.7969C85.2031 37.0469 85.2344 36.5 85.5469 36.1562C85.8906 35.7812 86.2969 35.4531 86.7656 35.1719C87.2344 34.8906 87.6719 34.5781 88.0781 34.2344C88.4844 33.8906 88.6406 33.375 88.5469 32.6875C88.7344 32.5 88.9531 32.3438 89.2031 32.2188C89.4531 32.0938 89.6875 31.9844 89.9062 31.8906C90.1562 31.7656 90.3906 31.6406 90.6094 31.5156C90.8281 31.3906 91.0312 31.2188 91.2188 31C91 30.8438 90.8906 30.6875 90.8906 30.5312C90.9219 30.375 90.9688 30.2188 91.0312 30.0625C91.0938 29.875 91.1562 29.6875 91.2188 29.5C91.3125 29.3125 91.3125 29.125 91.2188 28.9375C92.0625 29.0625 92.7969 28.9531 93.4219 28.6094C94.0781 28.2344 94.6875 27.8594 95.25 27.4844C95.8438 27.1094 96.4375 26.8438 97.0312 26.6875C97.625 26.5312 98.3125 26.7188 99.0938 27.25C99.1562 27.4688 99.25 27.7969 99.375 28.2344C99.5312 28.6406 99.6719 29.0625 99.7969 29.5C99.9531 29.9375 100.094 30.3594 100.219 30.7656C100.344 31.1719 100.422 31.4688 100.453 31.6562C100.453 31.8125 100.453 32.0625 100.453 32.4062C100.453 32.75 100.453 33.125 100.453 33.5312C100.453 33.9062 100.453 34.2656 100.453 34.6094C100.453 34.9531 100.453 35.2188 100.453 35.4062C101.359 35.9375 102.266 36.2656 103.172 36.3906C104.078 36.4844 104.984 36.2656 105.891 35.7344C106.234 36.0469 106.562 36.1406 106.875 36.0156C107.188 35.8594 107.484 35.6875 107.766 35.5C108.078 35.3125 108.391 35.2188 108.703 35.2188C109.016 35.1875 109.328 35.4375 109.641 35.9688C110.078 35.5625 110.531 35.3125 111 35.2188C111.469 35.0938 111.953 35.0312 112.453 35.0312C112.953 35 113.438 34.9531 113.906 34.8906C114.406 34.8281 114.891 34.625 115.359 34.2812ZM97.3594 35.0781C97.3594 34.6094 97.4375 34.1094 97.5938 33.5781C97.75 33.0469 97.875 32.5312 97.9688 32.0312C98.0625 31.5 98.0469 31 97.9219 30.5312C97.8281 30.0625 97.5312 29.6406 97.0312 29.2656C96.6875 29.4531 96.4062 29.7188 96.1875 30.0625C95.9688 30.375 95.75 30.7031 95.5312 31.0469C95.3125 31.3594 95.0469 31.625 94.7344 31.8438C94.4531 32.0625 94.0781 32.125 93.6094 32.0312C93.4531 32.4062 93.4531 32.7188 93.6094 32.9688C93.7656 33.1875 93.9531 33.4062 94.1719 33.625C94.3906 33.8125 94.5938 34.0156 94.7812 34.2344C95 34.4531 95.0781 34.7344 95.0156 35.0781C95.1406 35.1719 95.3125 35.2656 95.5312 35.3594C95.75 35.4219 95.9688 35.4688 96.1875 35.5C96.4375 35.5 96.6719 35.4688 96.8906 35.4062C97.1094 35.3438 97.2656 35.2344 97.3594 35.0781ZM97.0312 38.8281C96.4062 38.8281 95.8594 38.6875 95.3906 38.4062C94.9531 38.0938 94.5 37.75 94.0312 37.375C93.5938 37 93.125 36.6562 92.625 36.3438C92.1562 36 91.5781 35.7969 90.8906 35.7344C90.6094 36.1094 90.2812 36.4688 89.9062 36.8125C89.5312 37.125 89.2031 37.4688 88.9219 37.8438C88.6406 38.2188 88.4375 38.625 88.3125 39.0625C88.2188 39.5 88.2969 40 88.5469 40.5625C87.8281 40.9062 87.3438 41.4062 87.0938 42.0625C86.8438 42.6875 86.6719 43.375 86.5781 44.125C86.5156 44.875 86.4531 45.625 86.3906 46.375C86.3281 47.125 86.125 47.7969 85.7812 48.3906L86.8125 47.6875C86.9375 47.75 87.0312 47.8438 87.0938 47.9688C87.1875 48.0938 87.2031 48.2344 87.1406 48.3906C87.3906 48.1406 87.6719 47.9531 87.9844 47.8281C88.2969 47.6719 88.6094 47.5625 88.9219 47.5C89.2656 47.4062 89.5938 47.3281 89.9062 47.2656C90.25 47.2031 90.5781 47.1094 90.8906 46.9844C91.6719 47.4219 92.2344 47.5156 92.5781 47.2656C92.9219 47.0156 93.2031 46.6406 93.4219 46.1406C93.6406 45.6406 93.875 45.125 94.125 44.5938C94.375 44.0312 94.7812 43.6875 95.3438 43.5625L95.0156 43.2344C95.5469 42.5781 96.0156 41.9062 96.4219 41.2188C96.8594 40.5 97.0625 39.7031 97.0312 38.8281ZM154.875 4.98438C154.375 5.48437 154.062 5.98438 153.938 6.48438C153.844 6.98437 153.766 7.48438 153.703 7.98438C153.641 8.45312 153.5 8.92188 153.281 9.39062C153.094 9.85938 152.672 10.2969 152.016 10.7031C152.109 11.1719 152.016 11.5781 151.734 11.9219C151.453 12.2656 151.141 12.5938 150.797 12.9062C150.484 13.2187 150.188 13.5313 149.906 13.8438C149.656 14.125 149.594 14.4375 149.719 14.7812C148.531 16.375 147.344 17.9844 146.156 19.6094C145 21.2344 143.938 22.8906 142.969 24.5781C141.875 25.2656 140.984 26.125 140.297 27.1562C139.641 28.1875 139 29.25 138.375 30.3438C137.781 31.4062 137.125 32.4375 136.406 33.4375C135.719 34.4375 134.797 35.2656 133.641 35.9219L133.875 36.3906C133 36.6406 132.359 37.0469 131.953 37.6094C131.578 38.1719 131.25 38.7812 130.969 39.4375C130.688 40.0938 130.359 40.75 129.984 41.4062C129.609 42.0312 129.031 42.5312 128.25 42.9062C127.344 44.7812 126.234 46.6719 124.922 48.5781C123.578 50.4844 121.938 52.125 120 53.5C119.688 53.2812 119.562 53 119.625 52.6562C119.656 52.3125 119.719 51.9531 119.812 51.5781C119.906 51.2344 119.953 50.8906 119.953 50.5469C119.922 50.2344 119.688 49.9844 119.25 49.7969L119.859 49.4219C119.766 49.3281 119.688 49.2031 119.625 49.0469C119.531 48.9219 119.562 48.7812 119.719 48.625L120.281 48.2031C120.094 48.0469 120.031 47.8594 120.094 47.6406C120.125 47.4219 120.188 47.2031 120.281 46.9844C120.625 46.7031 120.984 46.5156 121.359 46.4219C121.703 46.3281 122.031 46.0938 122.344 45.7188C122.188 45.6562 122.109 45.5625 122.109 45.4375C122.109 45.3125 122.141 45.1719 122.203 45.0156C122.266 44.8594 122.344 44.7031 122.438 44.5469C122.5 44.3906 122.547 44.25 122.578 44.125C123.391 43.625 123.891 42.9531 124.078 42.1094C124.703 42.0156 125.156 41.7969 125.438 41.4531C125.688 41.0781 125.891 40.6562 126.047 40.1875C126.172 39.7188 126.312 39.25 126.469 38.7812C126.625 38.2812 126.922 37.875 127.359 37.5625C127.641 37.5 127.828 37.5938 127.922 37.8438C128.016 38.0625 128.125 38.25 128.25 38.4062C128.562 38.125 128.766 37.7812 128.859 37.375C128.953 36.9688 129.047 36.5938 129.141 36.25C129.234 35.875 129.391 35.5469 129.609 35.2656C129.828 34.9844 130.219 34.8125 130.781 34.75C130.781 34.2188 130.891 33.7969 131.109 33.4844C131.328 33.1719 131.594 32.9062 131.906 32.6875C132.25 32.4375 132.609 32.2031 132.984 31.9844C133.359 31.7344 133.734 31.4375 134.109 31.0938C133.922 30.8438 133.875 30.5938 133.969 30.3438C134.094 30.0938 134.25 29.8438 134.438 29.5938C134.656 29.3125 134.859 29.0312 135.047 28.75C135.234 28.4688 135.312 28.1562 135.281 27.8125C135.938 27.2188 136.5 26.5781 136.969 25.8906C137.438 25.2031 137.891 24.5156 138.328 23.8281C138.766 23.1406 139.234 22.4844 139.734 21.8594C140.266 21.2031 140.938 20.6094 141.75 20.0781C141.969 19.3281 142.344 18.625 142.875 17.9688C143.406 17.3125 143.938 16.6875 144.469 16.0938C145.031 15.4687 145.516 14.8594 145.922 14.2656C146.328 13.6406 146.531 13 146.531 12.3438C147.094 11.6875 147.703 11.0625 148.359 10.4688C149.047 9.875 149.703 9.26563 150.328 8.64062C150.984 8.01562 151.578 7.375 152.109 6.71875C152.641 6.03125 153.062 5.3125 153.375 4.5625C153.5 4.59375 153.656 4.59375 153.844 4.5625C154.031 4.53125 154.203 4.51562 154.359 4.51562C154.516 4.51562 154.641 4.54687 154.734 4.60938C154.828 4.67188 154.875 4.79688 154.875 4.98438ZM146.906 28.75C147.156 28.5938 147.375 28.4531 147.562 28.3281C147.781 28.1719 148.062 28.0781 148.406 28.0469L148.594 28.5156L150.844 28.2812C150.844 28.5625 151 28.7969 151.312 28.9844C151.656 29.1406 152.062 29.2969 152.531 29.4531C153 29.5781 153.469 29.7031 153.938 29.8281C154.438 29.9219 154.812 30.0469 155.062 30.2031C155.281 30.0781 155.516 30.0781 155.766 30.2031C156.016 30.2969 156.219 30.4062 156.375 30.5312C156.75 30.8125 157.094 31.0156 157.406 31.1406C157.75 31.2656 158.078 31.375 158.391 31.4688C158.703 31.5312 159.016 31.6094 159.328 31.7031C159.672 31.7656 160.047 31.875 160.453 32.0312C160.547 32.1875 160.562 32.3594 160.5 32.5469C160.469 32.7344 160.406 32.9375 160.312 33.1562C160.406 33.5 160.406 33.8125 160.312 34.0938C160.25 34.375 160 34.5938 159.562 34.75C159.25 34.9062 158.938 35.0469 158.625 35.1719C158.344 35.2656 158.062 35.3906 157.781 35.5469C156.875 35.9844 155.906 36.4844 154.875 37.0469C153.844 37.5781 152.781 37.9219 151.688 38.0781C151.25 38.4531 150.719 38.7812 150.094 39.0625C149.5 39.3125 148.859 39.5156 148.172 39.6719C147.484 39.7969 146.781 39.8594 146.062 39.8594C145.344 39.8594 144.688 39.7812 144.094 39.625C144.125 39.3438 144.125 39.0938 144.094 38.875C144.062 38.625 144.156 38.375 144.375 38.125L144.891 38.4062L146.062 36.7656C146.312 36.9844 146.625 37.0625 147 37C147.375 36.9062 147.75 36.7656 148.125 36.5781C148.531 36.3906 148.922 36.1875 149.297 35.9688C149.703 35.75 150.047 35.6094 150.328 35.5469C150.391 35.3281 150.531 35.1875 150.75 35.125C151 35.0625 151.234 35.0156 151.453 34.9844C151.922 34.9531 152.297 34.8906 152.578 34.7969C152.891 34.6719 153.172 34.5469 153.422 34.4219C153.703 34.2656 153.969 34.125 154.219 34C154.5 33.8438 154.828 33.6875 155.203 33.5312C155.484 33.5938 155.719 33.5938 155.906 33.5312C155.562 33.4062 155.219 33.2812 154.875 33.1562C154.531 33 154.188 32.8125 153.844 32.5938C153.219 32.5625 152.562 32.4375 151.875 32.2188C151.188 31.9688 150.531 31.6719 149.906 31.3281C149.281 30.9844 148.703 30.5938 148.172 30.1562C147.641 29.6875 147.219 29.2188 146.906 28.75Z" fill="black"/>
</svg>
