<svg width="276" height="276" viewBox="0 0 276 276" fill="none" xmlns="http://www.w3.org/2000/svg">
<path d="M9.65524 3.78707C8.60479 4.91609 7.61193 5.98342 6.49235 7.18677C5.47958 6.00323 4.77789 5.18437 3.851 4.10145V131.596C18.1354 117.572 32.4429 103.779 46.4581 89.6967C60.6315 75.4574 75.1348 61.5281 89.018 47.0311C102.744 32.6974 117.472 19.3451 131.751 4.06156H122.26C121.513 4.96333 120.649 6.00841 119.59 7.28726C118.537 6.02522 117.673 4.99056 116.72 3.84895H110.417C109.27 5.07954 108.237 6.18861 106.904 7.62133C106.044 6.07234 105.42 4.94856 104.741 3.72532C103.077 3.72532 101.456 3.89926 99.8872 3.68556C97.5139 3.3609 96.2781 4.65855 95.17 6.40026C95.0098 6.65052 94.5008 6.67993 93.9593 6.88518C93.1549 5.87768 92.3129 4.82199 91.5515 3.86787C87.8482 3.51489 84.3124 3.12106 82.0638 7.7649C79.8142 1.99518 75.5935 4.09397 72.152 3.75051C71.0638 4.9141 70.0731 5.97396 68.787 7.35016C66.795 2.70741 63.2508 3.67093 59.9036 3.88667C59.0637 4.91092 58.2007 5.96034 57.1356 7.25696C55.9594 5.91949 54.9686 4.79151 54.2711 3.99968H47.0331C46.0538 5.40312 45.5909 6.82758 44.8463 6.99513C42.3494 7.5576 43.0533 4.74656 42.0049 3.80293H34.7575C33.8536 4.90784 32.9927 5.95823 31.781 7.43812C29.2496 1.87897 24.8949 4.08572 21.247 3.92234C20.5579 5.3383 20.0824 6.31442 19.1964 8.13463C18.0883 6.13428 17.439 4.96128 16.7917 3.7872L9.65524 3.78707ZM3.87091 266.853C46.2078 224.519 88.6975 182.033 130.897 139.834C122.261 138.953 8.33877 139.29 3.87091 140.315V266.853ZM139.726 131.894C148.421 124.536 264.649 7.81315 267.293 3.72648C225.703 3.72648 184.304 3.72538 142.906 3.73376C142.109 3.73376 141.312 3.82383 140.519 3.9139C140.355 3.93167 140.207 4.1297 140.059 4.25435C139.906 4.38309 139.764 4.52456 139.726 4.56119V131.894ZM135.441 5.92467C92.0825 49.2869 49.2314 92.1411 5.95507 135.421C24.8184 136.61 130.988 136.098 135.441 134.868V5.92467ZM275.732 1.39084C230.949 46.1826 186.561 90.5797 141.328 135.819H275.262C274.807 137.582 274.772 138.774 274.215 139.626C273.463 140.775 272.318 141.671 271.327 142.661C228.443 185.549 185.556 228.436 142.667 271.319C141.535 272.45 140.469 273.688 139.178 274.603C138.502 275.083 137.406 274.972 136.154 275.187C135.189 268.491 135.83 262.12 135.712 255.783C135.596 249.581 135.687 243.373 135.687 237.168V141.816C90.5628 186.578 45.9868 230.796 1.39609 275C1.31334 275.083 1.0159 274.948 0.679733 274.891C0.475495 274.443 0.0293765 273.925 0.0293765 273.405C-0.000985332 182.559 3.70011e-06 91.7138 3.70011e-06 1.18348C0.461882 0.724761 0.590696 0.56553 0.749888 0.448231C0.901771 0.334062 1.08504 0.184355 1.25367 0.184355C91.5243 0.113148 181.796 0.0533714 272.067 0C272.664 0 273.276 0.0272257 273.851 0.166456C274.21 0.254484 274.511 0.578124 275.732 1.39084Z" fill="#6D5E48"/>
<path d="M9.18928 68.0822C7.87697 68.851 7.17004 69.5442 6.41284 69.605C5.94888 69.6416 4.90156 68.543 5 68.2434C5.24716 67.4862 5.92373 66.4631 6.56155 66.3594C7.15955 66.2609 7.92936 67.2025 9.18928 68.0822Z" fill="#6D5E48"/>
<path d="M34.4211 68.0811C33.1077 68.8499 32.4008 69.5412 31.6457 69.6009C31.1807 69.6375 30.1344 68.542 30.2329 68.2435C30.4811 67.4874 31.1556 66.4673 31.7923 66.3615C32.3903 66.2631 33.1591 67.2025 34.4211 68.0811Z" fill="#6D5E48"/>
<path d="M65.6512 11.3511C64.4091 12.257 63.6571 13.2195 63.0612 13.1315C62.4234 13.0362 61.727 12.0193 61.4756 11.2651C61.3729 10.9562 62.3972 9.84286 62.8591 9.87213C63.6152 9.91924 64.3316 10.6033 65.6512 11.3511Z" fill="#6D5E48"/>
<path d="M63.2437 39.2923C62.3419 38.0397 61.3868 37.2826 61.4789 36.6867C61.5763 36.0447 62.5881 35.3555 63.3411 35.0947C63.6374 34.9921 64.7497 36.0237 64.7204 36.4918C64.6743 37.2479 63.9925 37.9654 63.2437 39.2923Z" fill="#6D5E48"/>
<path d="M65.6605 61.6296C64.4425 62.634 63.7471 63.6373 63.1543 63.5797C62.5081 63.5169 61.7666 62.5503 61.4608 61.814C61.3424 61.5271 62.2955 60.3687 62.7731 60.3613C63.5219 60.3498 64.2801 60.9771 65.6605 61.6296Z" fill="#6D5E48"/>
<path d="M56.1363 65.4912C57.4988 66.9312 58.2173 67.6906 59.0667 68.5892C56.6948 69.4333 55.718 68.4006 56.1363 65.4912Z" fill="#6D5E48"/>
<path d="M56.1426 15.4828C57.2192 16.463 58.0812 17.2485 59.1568 18.2267C56.6509 18.9906 55.6462 18.0759 56.1426 15.4828Z" fill="#6D5E48"/>
<path d="M46.5344 17.4223C45.5887 19.0719 44.5267 20.0366 42.9578 18.2917C42.695 17.9995 42.6562 17.1103 42.9002 16.8244C44.4031 15.0629 45.5091 15.999 46.5344 17.4223Z" fill="#6D5E48"/>
<path d="M12.5857 84.5315C14.7652 85.9097 14.9621 87.1969 12.6821 88.6536C10.466 87.3383 10.4838 86.0448 12.5857 84.5315Z" fill="#6D5E48"/>
<path d="M12.592 51.347C10.8911 50.3521 10.2952 49.1698 12.0002 47.735C12.2746 47.5045 13.1743 47.5988 13.4665 47.8774C15.1569 49.484 14.1849 50.5039 12.592 51.347Z" fill="#6D5E48"/>
<path d="M31.0122 14.9957C32.3507 16.5143 33.0472 17.305 33.8787 18.2486C31.4029 19.0026 30.4473 17.9184 31.0122 14.9957Z" fill="#6D5E48"/>
<path d="M6.1301 95.4728C4.49001 93.2545 4.39259 92.0239 6.32071 91.5453C6.83389 91.4175 7.55235 92.1183 8.17762 92.4387C7.59739 93.2986 7.01825 94.1584 6.1301 95.4728Z" fill="#6D5E48"/>
<path d="M66.6483 43.6724C68.0863 42.3224 68.8508 41.6049 69.7599 40.7513C70.6006 43.1518 69.5634 44.1256 66.6483 43.6724Z" fill="#6D5E48"/>
<path d="M59.3486 43.2742C57.1303 44.8808 55.8987 44.9803 55.4284 43.0595C55.3038 42.5484 56.0045 41.8363 56.326 41.2152C57.1817 41.7975 58.0373 42.3809 59.3486 43.2742Z" fill="#6D5E48"/>
<path d="M10.1819 100.123C11.6178 98.7686 12.3876 98.0439 13.2946 97.1883C14.1464 99.63 13.1088 100.608 10.1819 100.123Z" fill="#6D5E48"/>
<path d="M4.97254 121.097C5.34048 118.18 6.59132 117.068 8.72506 117.763C7.63271 118.733 6.75821 119.511 4.97254 121.097Z" fill="#6D5E48"/>
<path d="M21.2324 17.5951C20.4322 18.9315 19.4991 19.9443 18.0359 18.6059C17.6631 18.2655 17.4987 17.0474 17.7835 16.7426C19.3242 15.0962 20.4081 15.9362 21.2324 17.5951Z" fill="#6D5E48"/>
<path d="M33.949 43.3884C31.4619 44.2213 30.4404 43.3364 30.8845 40.7335C31.9779 41.6813 32.8524 42.4385 33.949 43.3884Z" fill="#6D5E48"/>
<path d="M8.93993 17.992C6.7416 19.6489 5.49529 19.8206 4.98313 17.8736C4.8449 17.351 5.52776 16.6137 5.83357 15.9748C6.71961 16.5509 7.60563 17.1259 8.93993 17.992Z" fill="#6D5E48"/>
<path d="M115.839 11.0252C114.512 11.9039 113.646 12.4789 112.778 13.0539C112.46 12.4213 111.759 11.6872 111.893 11.1729C112.396 9.25322 113.631 9.35161 115.839 11.0252Z" fill="#6D5E48"/>
<path d="M90.326 10.8922C89.4735 11.7929 88.7519 12.5553 87.6323 13.7388C87.1296 12.6402 86.5012 11.9374 86.6248 11.4148C87.0311 9.7077 87.1359 9.73281 90.326 10.8922Z" fill="#6D5E48"/>
<path d="M35.8488 60.9783C38.4447 60.5426 39.3374 61.5628 38.5268 64.0387C37.5706 62.9463 36.806 62.0717 35.8488 60.9783Z" fill="#6D5E48"/>
<path d="M87.8493 39.0443C86.2175 36.8481 86.0374 35.5996 87.9791 35.0854C88.4965 34.9482 89.2328 35.6332 89.8685 35.9411C89.3019 36.8124 88.7353 37.6838 87.8493 39.0443Z" fill="#6D5E48"/>
<path d="M10.579 61.3175C14.363 59.9843 14.3588 59.998 13.6173 63.9789C12.5322 63.0279 11.6588 62.2644 10.579 61.3175Z" fill="#6D5E48"/>
<path d="M35.8057 10.8692C39.5876 9.53389 39.5823 9.54745 38.8398 13.5326C37.7558 12.5805 36.8845 11.816 35.8057 10.8692Z" fill="#6D5E48"/>
<path d="M9.97982 9.85008C12.8983 10.2125 14.0113 11.4616 13.3187 13.5974C12.3467 12.5061 11.5675 11.6316 9.97982 9.85008Z" fill="#6D5E48"/>
<path d="M35.3763 74.8238C36.8813 73.5073 37.672 72.8171 38.6094 71.997C39.3893 74.4987 38.3116 75.441 35.3763 74.8238Z" fill="#6D5E48"/>
<path d="M13.3019 71.9155C14.123 74.4011 13.2314 75.4173 10.6271 74.9641C11.5833 73.8749 12.3478 73.0036 13.3019 71.9155Z" fill="#6D5E48"/>
<path d="M13.59 38.7856C12.5102 37.8052 11.6462 37.0208 10.5685 36.0436C13.0891 35.2512 14.0962 36.1651 13.59 38.7856Z" fill="#6D5E48"/>
<path d="M76.1149 21.5235C76.582 24.1376 75.5616 25.0328 73.0536 24.2089C74.147 23.2496 75.0236 22.4808 76.1149 21.5235Z" fill="#6D5E48"/>
<path d="M25.4698 72.1951C26.1642 72.8046 26.8586 73.4152 28.1761 74.5725C26.7057 75.0333 25.8081 75.313 24.9105 75.5937C24.6749 74.6165 24.4382 73.6405 24.2026 72.6643C24.6257 72.5072 25.0478 72.3511 25.4698 72.1951Z" fill="#6D5E48"/>
<path d="M94.816 15.2262C96.476 17.4287 96.6174 18.6697 94.6819 19.1776C94.1625 19.3149 93.4272 18.6268 92.7915 18.3179C93.3612 17.4465 93.932 16.5762 94.816 15.2262Z" fill="#6D5E48"/>
<path d="M67.041 18.2266C68.1166 17.2484 68.9785 16.464 70.0541 15.4858C70.5548 18.0783 69.5504 18.9919 67.041 18.2266Z" fill="#6D5E48"/>
<path d="M7.11878 103.675C7.38061 104.621 7.64141 105.565 7.90324 106.509C7.03395 106.497 6.16363 106.485 5.29332 106.473C5.59283 105.535 5.89343 104.597 6.194 103.659C6.50192 103.665 6.80983 103.671 7.11878 103.675Z" fill="#6D5E48"/>
<path d="M20.8615 68.8519C19.8498 69.119 19.0873 69.5831 18.637 69.3736C18.083 69.1149 17.7886 68.2969 17.3833 67.7198C18.1615 67.3009 18.9396 66.882 19.7188 66.4631C20.0299 67.1145 20.342 67.7648 20.8615 68.8519Z" fill="#6D5E48"/>
<path d="M25.676 88.9469C25.035 88.0452 24.6077 87.4419 24.1783 86.8376C24.8737 86.3809 25.5691 85.9244 26.2646 85.4677C26.629 86.0228 27.3527 86.6428 27.2679 87.1172C27.1621 87.7079 26.3882 88.1803 25.676 88.9469Z" fill="#6D5E48"/>
<path d="M37.3276 88.685C37.093 87.7456 36.8605 86.804 36.6269 85.8635C37.4972 85.9044 38.3675 85.9463 39.2379 85.9871C38.9132 86.9004 38.5885 87.8137 38.2639 88.7269C37.9517 88.7133 37.6386 88.6996 37.3276 88.685Z" fill="#6D5E48"/>
<path d="M21.0167 93.2326C20.1694 93.9301 19.6007 94.7544 19.1189 94.7063C18.4989 94.6444 17.948 93.884 17.3667 93.4242C17.97 92.8125 18.4999 92.0648 19.2226 91.6763C19.43 91.5663 20.1976 92.5016 21.0167 93.2326Z" fill="#6D5E48"/>
<path d="M34.8694 93.0923C33.4524 93.8202 32.647 94.5837 32.0961 94.4297C31.3756 94.2297 30.855 93.306 30.2487 92.6933C30.7995 92.2691 31.3232 91.5559 31.9076 91.5034C32.4669 91.4542 33.0869 92.09 34.8694 93.0923Z" fill="#6D5E48"/>
<path d="M50.9238 64.8386C49.9633 63.1943 49.3224 62.5879 49.3622 62.0307C49.4041 61.4484 50.1027 60.9143 50.5132 60.3592C51.1406 60.9551 52.0727 61.4589 52.2916 62.1794C52.4486 62.6968 51.6527 63.5043 50.9238 64.8386Z" fill="#6D5E48"/>
<path d="M56.5835 57.4823C56.3196 56.5459 56.0546 55.6087 55.7907 54.6723C56.6568 54.6901 57.523 54.7068 58.388 54.7236C58.0937 55.6463 57.7995 56.569 57.5052 57.4927C57.1983 57.4885 56.8904 57.4854 56.5835 57.4823Z" fill="#6D5E48"/>
<path d="M18.9042 103.133C19.5567 103.912 20.2898 104.398 20.3296 104.937C20.3757 105.548 19.8017 106.205 19.4969 106.841C18.7607 106.332 18.0223 105.823 17.285 105.314C17.728 104.717 18.1711 104.12 18.9042 103.133Z" fill="#6D5E48"/>
<path d="M16.1266 112.377C14.4143 113.079 13.5921 113.74 12.9658 113.588C12.2358 113.411 11.6766 112.526 11.044 111.947C11.5802 111.496 12.0787 110.754 12.6642 110.678C13.2245 110.604 13.876 111.222 16.1266 112.377Z" fill="#6D5E48"/>
<path d="M27.6335 11.2923C26.87 12.0212 26.4082 12.8035 25.8122 12.925C25.3315 13.0235 24.6875 12.325 24.1156 11.9804C24.5638 11.2766 25.0121 10.5738 25.4593 9.87002C26.0825 10.2774 26.7056 10.6848 27.6335 11.2923Z" fill="#6D5E48"/>
<path d="M27.6199 62.124C26.7056 62.7408 26.0908 63.1557 25.475 63.5715C25.0215 62.8719 24.5691 62.1732 24.1156 61.4747C24.6822 61.1228 25.3169 60.4158 25.7976 60.508C26.3904 60.6232 26.8554 61.4014 27.6199 62.124Z" fill="#6D5E48"/>
<path d="M68.657 57.4969C68.3805 56.5595 68.105 55.6233 67.8296 54.6859C68.6968 54.6922 69.565 54.6975 70.4322 54.7037C70.1473 55.6359 69.8614 56.569 69.5755 57.5021C69.2697 57.5 68.9628 57.4989 68.657 57.4969Z" fill="#6D5E48"/>
<path d="M27.4021 99.7008C26.4606 99.9763 25.518 100.253 24.5764 100.528C24.5817 99.6569 24.5869 98.7855 24.5911 97.9142C25.5442 98.2042 26.4962 98.4943 27.4492 98.7854C27.4335 99.0912 27.4178 99.3961 27.4021 99.7008Z" fill="#6D5E48"/>
<path d="M53.2103 24.3284C52.1724 24.7745 51.4916 25.3359 50.9313 25.2343C50.3595 25.1296 49.9081 24.3733 49.4033 23.9031C50.0735 23.3731 50.6831 22.6327 51.4424 22.417C51.7472 22.33 52.3797 23.3963 53.2103 24.3284Z" fill="#6D5E48"/>
<path d="M37.8481 25.8972C37.1485 25.0447 36.3233 24.4729 36.3725 23.9901C36.4353 23.3659 37.1977 22.8128 37.6586 22.2306C38.2692 22.838 39.0201 23.3733 39.4055 24.1001C39.5165 24.3106 38.5813 25.0761 37.8481 25.8972Z" fill="#6D5E48"/>
<path d="M35.2255 55.9187C33.5676 56.6215 32.7444 57.3001 32.1359 57.1441C31.4101 56.9576 30.8697 56.0549 30.2487 55.4621C30.7849 55.0212 31.2865 54.2922 31.8678 54.222C32.4229 54.1561 33.0607 54.775 35.2255 55.9187Z" fill="#6D5E48"/>
<path d="M21.0009 55.7019C20.2143 56.5251 19.4823 57.5232 19.3084 57.4331C18.5637 57.0509 17.9835 56.348 17.3447 55.7605C17.906 55.264 18.414 54.4828 19.0466 54.3665C19.5063 54.2807 20.1305 55.0704 21.0009 55.7019Z" fill="#6D5E48"/>
<path d="M6.2305 57.5095C5.91213 56.5826 5.59267 55.6547 5.27431 54.7278C6.14462 54.6984 7.01494 54.6703 7.88631 54.6409C7.64334 55.5866 7.40143 56.5313 7.15845 57.477C6.84948 57.4874 6.5405 57.4979 6.2305 57.5095Z" fill="#6D5E48"/>
<path d="M52.6017 74.4981C51.6654 74.7621 50.7281 75.0249 49.7918 75.2889C49.8117 74.4217 49.8295 73.5545 49.8483 72.6883C50.77 72.9836 51.6916 73.2789 52.6133 73.5733C52.6091 73.8823 52.6049 74.1902 52.6017 74.4981Z" fill="#6D5E48"/>
<path d="M7.07455 78.4476C7.35837 79.3839 7.64117 80.3202 7.92498 81.2565C7.05569 81.2638 6.18643 81.2711 5.31714 81.2785C5.59469 80.3348 5.87222 79.3933 6.15082 78.4518C6.45769 78.4507 6.76663 78.4497 7.07455 78.4476Z" fill="#6D5E48"/>
<path d="M32.3445 78.4632C32.6073 79.4026 32.8713 80.3411 33.1341 81.2805C32.268 81.269 31.4008 81.2564 30.5347 81.2449C30.8321 80.3128 31.1306 79.3797 31.4291 78.4476C31.7339 78.4518 32.0387 78.4569 32.3445 78.4632Z" fill="#6D5E48"/>
<path d="M52.6238 37.1213C51.7 37.4387 50.7763 37.7551 49.8526 38.0714C49.8243 37.1999 49.795 36.3296 49.7667 35.4583C50.7082 35.7023 51.6508 35.9453 52.5923 36.1893C52.6039 36.5004 52.6133 36.8114 52.6238 37.1213Z" fill="#6D5E48"/>
<path d="M83.8336 43.2606C82.9015 43.5225 81.9694 43.7843 81.0362 44.0461C81.054 43.18 81.0698 42.3138 81.0865 41.4476C82.006 41.742 82.9256 42.0363 83.8452 42.3306C83.841 42.6406 83.8368 42.9507 83.8336 43.2606Z" fill="#6D5E48"/>
<path d="M46.5869 43.2462C45.6475 43.5174 44.707 43.7876 43.7676 44.0578C43.7864 43.1916 43.8042 42.3245 43.822 41.4584C44.7625 41.7526 45.7019 42.046 46.6424 42.3403C46.6246 42.6419 46.6058 42.9446 46.5869 43.2462Z" fill="#6D5E48"/>
<path d="M17.1185 42.3138C18.0485 42.029 18.9785 41.7452 19.9086 41.4603C19.919 42.3296 19.9285 43.2 19.9389 44.0693C19.0005 43.7959 18.0621 43.5225 17.1248 43.2503C17.1227 42.9382 17.1206 42.6249 17.1185 42.3138Z" fill="#6D5E48"/>
<path d="M52.854 11.7698C51.8695 12.3543 51.2369 12.7302 50.6044 13.1052C50.1907 12.3794 49.777 11.6535 49.3633 10.9267C49.9519 10.623 50.6138 9.98928 51.1092 10.1014C51.6831 10.2312 52.1104 11.0137 52.854 11.7698Z" fill="#6D5E48"/>
<path d="M9.51181 42.8857C7.87486 43.843 7.26321 44.4893 6.70394 44.4474C6.11744 44.4034 5.58123 43.6985 5.02301 43.2817C5.62313 42.6554 6.13105 41.7211 6.85372 41.5064C7.37632 41.3514 8.18278 42.1526 9.51181 42.8857Z" fill="#6D5E48"/>
<path d="M73.5877 36.2364C74.5272 35.9693 75.4666 35.7012 76.4061 35.4341C76.3904 36.3023 76.3757 37.1716 76.36 38.0419C75.4331 37.7487 74.5062 37.4555 73.5783 37.1622C73.5815 36.8543 73.5846 36.5453 73.5877 36.2364Z" fill="#6D5E48"/>
<path d="M83.8547 18.0076C82.9194 18.2851 81.9842 18.5617 81.0489 18.8392C81.0521 17.9689 81.0552 17.0987 81.0583 16.2284C82.0062 16.5164 82.954 16.8032 83.9008 17.0912C83.8861 17.3971 83.8704 17.7018 83.8547 18.0076Z" fill="#6D5E48"/>
<path d="M36.3011 36.2677C37.2374 35.9849 38.1748 35.7022 39.111 35.4184C39.1163 36.2918 39.1205 37.1654 39.1257 38.0377C38.1852 37.7581 37.2437 37.4774 36.3032 37.1967C36.3022 36.8867 36.3021 36.5777 36.3011 36.2677Z" fill="#6D5E48"/>
<path d="M28.794 23.6832C27.0639 24.6645 26.4428 25.3044 25.8751 25.2604C25.2876 25.2154 24.7514 24.5073 24.1932 24.0885C24.8048 23.4621 25.3264 22.5291 26.0584 22.3123C26.5936 22.1562 27.4063 22.9438 28.794 23.6832Z" fill="#6D5E48"/>
<path d="M13.1344 21.9802C13.4162 22.9217 13.6979 23.8643 13.9796 24.8069C13.1051 24.8037 12.2306 24.8016 11.3571 24.7996C11.642 23.8444 11.9269 22.8892 12.2117 21.9351C12.5197 21.9498 12.8265 21.9645 13.1344 21.9802Z" fill="#6D5E48"/>
<path d="M109.074 18.0445C108.134 18.3084 107.193 18.5711 106.253 18.8341C106.27 17.9606 106.289 17.0861 106.307 16.2117C107.234 16.507 108.16 16.8033 109.087 17.0987C109.083 17.4139 109.078 17.7292 109.074 18.0445Z" fill="#6D5E48"/>
<path d="M84.0779 30.9704C83.1207 31.5485 82.4902 31.9298 81.8586 32.312C81.4418 31.5831 81.025 30.8542 80.6071 30.1252C81.1936 29.8089 81.8628 29.1481 82.3436 29.2654C82.9259 29.4058 83.3479 30.2059 84.0779 30.9704Z" fill="#6D5E48"/>
<path d="M68.6592 32.2702C68.3817 31.3329 68.1041 30.3945 67.8276 29.4561C68.6979 29.4613 69.5693 29.4654 70.4397 29.4707C70.1548 30.4059 69.8699 31.3402 69.585 32.2755C69.2761 32.2734 68.9682 32.2723 68.6592 32.2702Z" fill="#6D5E48"/>
<path d="M59.2374 30.0279C58.3576 30.9495 57.6172 32.0136 57.3889 31.912C56.6463 31.5862 56.0933 30.8333 55.466 30.2447C56.0001 29.7996 56.4965 29.0706 57.0788 28.9921C57.6297 28.9187 58.2718 29.5304 59.2374 30.0279Z" fill="#6D5E48"/>
<path d="M44.4712 28.2966C45.3593 29.567 46.06 30.2236 46.2359 30.9997C46.3019 31.2908 45.1655 32.1664 44.5518 32.1937C44.1371 32.2125 43.3956 31.249 43.3191 30.6583C43.2479 30.1075 43.8627 29.4675 44.4712 28.2966Z" fill="#6D5E48"/>
<path d="M35.3942 30.7317C33.6158 31.4281 32.7801 32.0785 32.1506 31.9183C31.4175 31.733 30.8656 30.8375 30.2351 30.2499C30.7713 29.8006 31.2688 29.0664 31.8553 28.9878C32.4083 28.9125 33.0545 29.5272 35.3942 30.7317Z" fill="#6D5E48"/>
<path d="M17.0953 30.2887C18.0285 29.9651 18.9606 29.6425 19.8938 29.319C19.9189 30.1987 19.9451 31.0794 19.9713 31.9581C19.0245 31.7162 18.0788 31.4743 17.132 31.2313C17.1205 30.9171 17.1079 30.6029 17.0953 30.2887Z" fill="#6D5E48"/>
<path d="M9.74957 30.6342C8.26447 31.3505 7.44964 32.0889 6.87675 31.9338C6.15202 31.738 5.6252 30.8144 5.01253 30.2048C5.55923 29.7713 6.07765 29.0423 6.65996 28.9868C7.22236 28.9334 7.85181 29.5732 9.74957 30.6342Z" fill="#6D5E48"/>
<path d="M102.188 24.4706C101.57 24.7618 100.904 25.3514 100.347 25.2614C99.7615 25.1661 99.2818 24.4205 98.755 23.9596C99.4054 23.4088 99.9888 22.5604 100.724 22.397C101.388 22.2482 102.22 22.8483 102.977 23.1185C102.714 23.5689 102.451 24.0203 102.188 24.4706Z" fill="#6D5E48"/>
<path d="M88.5918 21.7582C89.1762 22.7396 89.5522 23.3733 89.9282 24.0059C89.2003 24.4196 88.4724 24.8332 87.7445 25.2469C87.4376 24.6572 86.7998 23.9922 86.9129 23.499C87.0439 22.9229 87.8325 22.4987 88.5918 21.7582Z" fill="#6D5E48"/>
<path d="M98.8064 11.0022C99.75 10.7352 100.694 10.4671 101.637 10.201C101.621 11.0724 101.605 11.9447 101.588 12.8161C100.658 12.5228 99.728 12.2297 98.797 11.9364C98.8001 11.6243 98.8032 11.3133 98.8064 11.0022Z" fill="#6D5E48"/>
<path d="M94.5498 32.5006C93.823 31.7371 93.0427 31.2731 92.9212 30.6751C92.8238 30.1975 93.5297 29.5566 93.8785 28.9889C94.5812 29.4393 95.284 29.8885 95.9867 30.3378C95.5752 30.9579 95.1625 31.579 94.5498 32.5006Z" fill="#6D5E48"/>
<path d="M75.1535 14.8607C74.455 13.2132 73.7742 12.3879 73.9313 11.7794C74.1188 11.0536 75.0247 10.5142 75.6185 9.89419C76.0595 10.4304 76.7936 10.9331 76.8596 11.5123C76.9245 12.0726 76.3003 12.7105 75.1535 14.8607Z" fill="#6D5E48"/>
<path d="M27.4105 37.1736C26.4721 37.4616 25.5337 37.7496 24.5953 38.0387C24.588 37.1642 24.5796 36.2907 24.5712 35.4172C25.5295 35.6947 26.4878 35.9724 27.4461 36.2509C27.4335 36.5589 27.422 36.8657 27.4105 37.1736Z" fill="#6D5E48"/>
<path d="M63.0581 25.892C62.3616 25.0447 61.5395 24.4761 61.5887 23.9954C61.6526 23.3743 62.4109 22.8223 62.8706 22.2421C63.4812 22.8443 64.2301 23.3732 64.6155 24.0958C64.7265 24.3042 63.7912 25.0698 63.0581 25.892Z" fill="#6D5E48"/>
<path d="M62.6108 47.539C63.5722 48.335 64.098 48.7697 64.6237 49.2044C64.1095 49.6547 63.656 50.306 63.0601 50.4851C62.6726 50.6024 61.6535 50.0202 61.6598 49.7709C61.6766 49.1687 62.128 48.579 62.6108 47.539Z" fill="#6D5E48"/>
<path d="M46.3367 67.3961C45.4737 68.4445 45.1009 69.054 44.5657 69.4363C44.4369 69.5274 43.3686 68.7199 43.4199 68.5816C43.6996 67.8308 44.1405 67.1123 44.6715 66.5112C44.7532 66.419 45.5868 66.9887 46.3367 67.3961Z" fill="#6D5E48"/>
<path d="M46.3 55.9322C45.3637 56.6423 44.8285 57.0485 44.2923 57.455C43.9634 56.8329 43.4628 56.2348 43.3738 55.5792C43.3267 55.2315 44.1488 54.3905 44.3027 54.4534C44.8976 54.6943 45.3815 55.2095 46.3 55.9322Z" fill="#6D5E48"/>
<path d="M77.2159 48.9363C76.4911 49.6956 76.1319 50.3847 75.7664 50.3889C75.0657 50.3952 74.3619 50.0128 73.6591 49.7919C74.0582 49.2609 74.3692 48.4335 74.8814 48.2806C75.4197 48.1193 76.1508 48.6033 77.2159 48.9363Z" fill="#6D5E48"/>
<path d="M53.1369 49.0085C52.3503 49.7426 51.967 50.391 51.5963 50.3836C50.9008 50.37 50.2127 49.9772 49.5215 49.7415C49.9415 49.2158 50.2798 48.3873 50.8024 48.248C51.3449 48.1025 52.0655 48.6251 53.1369 49.0085Z" fill="#6D5E48"/>
<path d="M37.4165 47.5411C38.3654 48.3319 38.9749 48.7058 39.3499 49.2441C39.4431 49.3781 38.777 50.3888 38.4597 50.3888C37.7663 50.3898 37.0719 50.0003 36.3776 49.7699C36.6551 49.1739 36.9337 48.577 37.4165 47.5411Z" fill="#6D5E48"/>
<path d="M27.4651 49.8723C26.8063 50.0839 26.0638 50.5825 25.5139 50.4212C25.0039 50.2724 24.7012 49.4189 24.3063 48.8754C25.0091 48.6618 25.7024 48.3276 26.4177 48.2721C26.9959 48.227 27.6012 48.5162 28.194 48.6576C27.951 49.0629 27.708 49.468 27.4651 49.8723Z" fill="#6D5E48"/>
<path d="M43.8795 82.3101C43.7036 81.7592 43.3548 81.1947 43.3936 80.6584C43.4459 79.9421 43.7978 79.2477 44.0209 78.5438C44.5551 78.9398 45.3919 79.2477 45.5406 79.7567C45.6987 80.2992 45.2075 81.0312 45.0002 81.6816C44.6263 81.8911 44.2524 82.1006 43.8795 82.3101Z" fill="#6D5E48"/>
<path d="M20.7317 80.6144C20.0175 81.0406 19.5682 81.3098 19.1178 81.5778C18.767 80.9799 18.0841 80.3306 18.1637 79.7986C18.2391 79.3011 19.1272 78.9283 19.6572 78.4999C19.9892 79.1524 20.3212 79.8059 20.7317 80.6144Z" fill="#6D5E48"/>
</svg>
